<svg width="32" height="32" viewBox="0 0 32 32" fill="none" xmlns="http://www.w3.org/2000/svg">
  <defs>
    <linearGradient id="grad" x1="0%" y1="0%" x2="100%" y2="100%">
      <stop offset="0%" style="stop-color:#3B82F6;stop-opacity:1" />
      <stop offset="100%" style="stop-color:#9333EA;stop-opacity:1" />
    </linearGradient>
  </defs>

  <!-- Background Circle -->
  <circle cx="16" cy="16" r="15" fill="url(#grad)"/>

  <!-- Kanban Board Icon -->
  <g transform="translate(6, 7)">
    <!-- Column 1 -->
    <rect x="0" y="0" width="5" height="16" rx="1" fill="rgba(255,255,255,0.3)"/>
    <rect x="0.5" y="2" width="4" height="2" rx="0.5" fill="rgba(255,255,255,0.9)"/>
    <rect x="0.5" y="5" width="4" height="2" rx="0.5" fill="rgba(255,255,255,0.9)"/>
    <rect x="0.5" y="8" width="4" height="2" rx="0.5" fill="rgba(255,255,255,0.9)"/>

    <!-- Column 2 -->
    <rect x="7" y="0" width="5" height="16" rx="1" fill="rgba(255,255,255,0.3)"/>
    <rect x="7.5" y="2" width="4" height="2" rx="0.5" fill="rgba(6,182,212,0.9)"/>
    <rect x="7.5" y="5" width="4" height="2" rx="0.5" fill="rgba(6,182,212,0.9)"/>

    <!-- Column 3 -->
    <rect x="14" y="0" width="5" height="16" rx="1" fill="rgba(255,255,255,0.3)"/>
    <rect x="14.5" y="2" width="4" height="2" rx="0.5" fill="rgba(34,197,94,0.9)"/>
    <rect x="14.5" y="5" width="4" height="2" rx="0.5" fill="rgba(34,197,94,0.9)"/>
    <rect x="14.5" y="8" width="4" height="2" rx="0.5" fill="rgba(34,197,94,0.9)"/>
  </g>
</svg>
